<svg width="13" height="13" viewBox="0 0 13 13" fill="none" xmlns="http://www.w3.org/2000/svg">
<path d="M11.8993 3.2456L11.9019 4.55379C11.9037 5.40789 11.3642 5.94955 10.5101 5.95128L8.66133 5.95502L8.65369 2.17643C8.65247 1.57639 9.14341 1.08888 9.74344 1.08767C10.3327 1.09188 10.8737 1.32864 11.2637 1.71707C11.6537 2.11089 11.8981 2.65097 11.8993 3.2456Z" fill="black"/>
<path opacity="0.4" d="M1.08884 3.80825L1.10416 11.3763C1.10507 11.8249 1.61372 12.078 1.96995 11.807L2.89293 11.1132C3.10883 10.9505 3.41159 10.9716 3.60659 11.1658L4.50576 12.0667C4.71701 12.2771 5.06298 12.2764 5.27338 12.0652L6.1797 11.1552C6.36852 10.9656 6.67119 10.9433 6.88235 11.1051L7.80812 11.7951C8.16543 12.0593 8.67306 11.8042 8.67216 11.3609L8.65356 2.17122C8.65236 1.57659 9.13789 1.08909 9.73252 1.08789L3.78623 1.09992L3.24566 1.10102C1.62395 1.1043 1.08533 2.07302 1.08775 3.26768L1.08884 3.80825Z" fill="#1A1305"/>
<path d="M6.4978 5.28359L3.25437 5.29016C3.03273 5.2906 2.84857 5.10718 2.84812 4.88555C2.84767 4.66391 3.03109 4.47975 3.25273 4.4793L6.49616 4.47273C6.71779 4.47229 6.90196 4.65571 6.90241 4.87734C6.90285 5.09898 6.71943 5.28314 6.4978 5.28359Z" fill="white"/>
<path d="M6.09677 7.44673L3.6642 7.45165C3.44257 7.4521 3.2584 7.26868 3.25795 7.04704C3.2575 6.82541 3.44093 6.64124 3.66256 6.64079L6.09513 6.63587C6.31677 6.63542 6.50093 6.81884 6.50138 7.04048C6.50183 7.26211 6.31841 7.44628 6.09677 7.44673Z" fill="white"/>
</svg>
