<svg width="12" height="12" viewBox="0 0 12 12" fill="none" xmlns="http://www.w3.org/2000/svg">
<path d="M1.01092 6.4491L1.00914 5.57087C1.00809 5.05193 1.43136 4.62194 1.9553 4.62088C2.85847 4.61905 3.22643 3.9796 2.77077 3.1971C2.51038 2.74854 2.66389 2.16441 3.11744 1.90401L3.97969 1.40827C4.37342 1.17294 4.88267 1.31163 5.118 1.70536L5.17308 1.80005C5.62375 2.58256 6.36226 2.58106 6.81475 1.79673L6.86945 1.70181C7.10317 1.30714 7.61186 1.16639 8.00654 1.40012L8.87079 1.89237C9.32539 2.15093 9.48126 2.73443 9.2227 3.18404C8.7702 3.96838 9.14075 4.60634 10.0439 4.60451C10.5629 4.60346 10.9929 5.02673 10.9939 5.55067L10.9957 6.42889C10.9967 6.94784 10.5735 7.37783 10.0495 7.37889C9.14636 7.38072 8.7784 8.02017 9.23407 8.80266C9.49446 9.25622 9.34094 9.83536 8.88739 10.0958L8.02514 10.5915C7.63141 10.8268 7.12216 10.6881 6.88684 10.2944L6.83176 10.1997C6.38108 9.41721 5.64258 9.4187 5.19008 10.203L5.13538 10.298C4.90166 10.6926 4.39297 10.8334 3.99829 10.5996L3.13404 10.1074C2.67944 9.84884 2.52357 9.26534 2.78214 8.81572C3.23463 8.03139 2.86409 7.39343 1.96092 7.39526C1.43698 7.39632 1.01197 6.96804 1.01092 6.4491Z" fill="black"/>
<path d="M6.00305 7.62167C6.8987 7.61986 7.6233 6.89233 7.62149 5.99668C7.61967 5.10103 6.89214 4.37643 5.99649 4.37824C5.10084 4.38006 4.37624 5.10759 4.37806 6.00324C4.37987 6.89889 5.10741 7.62349 6.00305 7.62167Z" fill="white"/>
</svg>
