<svg width="25" height="25" viewBox="0 0 25 25" fill="none" xmlns="http://www.w3.org/2000/svg">
<g clip-path="url(#clip0_14_1753)">
<path d="M19.7917 14.5834C18.9343 14.5891 18.092 14.8093 17.3417 15.224L13.8542 11.0418L21.6323 1.70842C21.8013 1.49539 21.8803 1.22471 21.8525 0.954205C21.8246 0.683699 21.6921 0.434816 21.4831 0.260726C21.2742 0.0866352 21.0055 0.00114199 20.7344 0.0225102C20.4633 0.0438785 20.2113 0.170414 20.0323 0.375084L12.5 9.41467L4.96667 0.375084C4.78762 0.170414 4.53562 0.0438785 4.26453 0.0225102C3.99343 0.00114199 3.72472 0.0866352 3.51582 0.260726C3.30691 0.434816 3.17436 0.683699 3.14649 0.954205C3.11862 1.22471 3.19764 1.49539 3.36667 1.70842L11.1458 11.0418L7.65834 15.224C6.90777 14.8098 6.06561 14.5896 5.20834 14.5834C4.17823 14.5834 3.17125 14.8889 2.31474 15.4612C1.45823 16.0335 0.79067 16.8469 0.396463 17.7986C0.00225669 18.7503 -0.100886 19.7975 0.100079 20.8078C0.301044 21.8182 0.797089 22.7462 1.52549 23.4746C2.25389 24.203 3.18192 24.699 4.19224 24.9C5.20256 25.101 6.24978 24.9978 7.20148 24.6036C8.15318 24.2094 8.96661 23.5419 9.53891 22.6853C10.1112 21.8288 10.4167 20.8219 10.4167 19.7918C10.4107 18.6147 10.0019 17.4751 9.25834 16.5626L12.5 12.6688L15.7406 16.5626C14.998 17.4756 14.5897 18.6149 14.5833 19.7918C14.5833 20.8219 14.8888 21.8288 15.4611 22.6853C16.0334 23.5419 16.8468 24.2094 17.7985 24.6036C18.7502 24.9978 19.7974 25.101 20.8078 24.9C21.8181 24.699 22.7461 24.203 23.4745 23.4746C24.2029 22.7462 24.699 21.8182 24.8999 20.8078C25.1009 19.7975 24.9977 18.7503 24.6035 17.7986C24.2093 16.8469 23.5418 16.0335 22.6853 15.4612C21.8288 14.8889 20.8218 14.5834 19.7917 14.5834ZM5.20834 22.9168C4.59027 22.9168 3.98608 22.7335 3.47218 22.3901C2.95828 22.0467 2.55774 21.5587 2.32121 20.9876C2.08469 20.4166 2.0228 19.7883 2.14338 19.1821C2.26396 18.5759 2.56159 18.0191 2.99863 17.582C3.43567 17.145 3.99249 16.8474 4.59868 16.7268C5.20487 16.6062 5.8332 16.6681 6.40422 16.9046C6.97524 17.1412 7.4633 17.5417 7.80668 18.0556C8.15006 18.5695 8.33334 19.1737 8.33334 19.7918C8.33334 20.6206 8.0041 21.4154 7.41805 22.0015C6.83199 22.5875 6.03714 22.9168 5.20834 22.9168ZM19.7917 22.9168C19.1736 22.9168 18.5694 22.7335 18.0555 22.3901C17.5416 22.0467 17.1411 21.5587 16.9045 20.9876C16.668 20.4166 16.6061 19.7883 16.7267 19.1821C16.8473 18.5759 17.1449 18.0191 17.582 17.582C18.019 17.145 18.5758 16.8474 19.182 16.7268C19.7882 16.6062 20.4165 16.6681 20.9876 16.9046C21.5586 17.1412 22.0466 17.5417 22.39 18.0556C22.7334 18.5695 22.9167 19.1737 22.9167 19.7918C22.9167 20.6206 22.5874 21.4154 22.0014 22.0015C21.4153 22.5875 20.6205 22.9168 19.7917 22.9168Z" fill="black"/>
</g>
<defs>
<clipPath id="clip0_14_1753">
<rect width="25" height="25" fill="white"/>
</clipPath>
</defs>
</svg>
