<svg width="25" height="25" viewBox="0 0 25 25" fill="none" xmlns="http://www.w3.org/2000/svg">
<path d="M21.354 17.4482H19.0103V15.1045C19.0103 14.6774 18.6561 14.3232 18.229 14.3232C17.8019 14.3232 17.4478 14.6774 17.4478 15.1045V17.4482H15.104C14.6769 17.4482 14.3228 17.8024 14.3228 18.2295C14.3228 18.6566 14.6769 19.0107 15.104 19.0107H17.4478V21.3545C17.4478 21.7816 17.8019 22.1357 18.229 22.1357C18.6561 22.1357 19.0103 21.7816 19.0103 21.3545V19.0107H21.354C21.7811 19.0107 22.1353 18.6566 22.1353 18.2295C22.1353 17.8024 21.7811 17.4482 21.354 17.4482Z" fill="black"/>
<path opacity="0.4" d="M22.9167 8.87467V4.14551C22.9167 2.67676 22.25 2.08301 20.5938 2.08301H16.3854C14.7292 2.08301 14.0625 2.67676 14.0625 4.14551V8.86426C14.0625 10.3434 14.7292 10.9268 16.3854 10.9268H20.5938C22.25 10.9372 22.9167 10.3434 22.9167 8.87467Z" fill="black"/>
<path d="M10.9377 8.87467V4.14551C10.9377 2.67676 10.271 2.08301 8.61475 2.08301H4.40641C2.75016 2.08301 2.0835 2.67676 2.0835 4.14551V8.86426C2.0835 10.3434 2.75016 10.9268 4.40641 10.9268H8.61475C10.271 10.9372 10.9377 10.3434 10.9377 8.87467Z" fill="black"/>
<path opacity="0.4" d="M10.9377 20.5938V16.3854C10.9377 14.7292 10.271 14.0625 8.61475 14.0625H4.40641C2.75016 14.0625 2.0835 14.7292 2.0835 16.3854V20.5938C2.0835 22.25 2.75016 22.9167 4.40641 22.9167H8.61475C10.271 22.9167 10.9377 22.25 10.9377 20.5938Z" fill="black"/>
</svg>
