<svg width="25" height="25" viewBox="0 0 25 25" fill="none" xmlns="http://www.w3.org/2000/svg">
<path d="M20.9375 7.35407C20.9375 7.91657 20.6354 8.42695 20.1563 8.68737L18.3437 9.66654L16.8021 10.4895L13.6042 12.2186C13.2604 12.4061 12.8854 12.4999 12.5 12.4999C12.1146 12.4999 11.7396 12.4061 11.3958 12.2186L4.84375 8.68737C4.36458 8.42695 4.0625 7.91657 4.0625 7.35407C4.0625 6.79157 4.36458 6.28112 4.84375 6.0207L6.89583 4.91654L8.53126 4.03115L11.3958 2.4895C12.0833 2.1145 12.9167 2.1145 13.6042 2.4895L20.1563 6.0207C20.6354 6.28112 20.9375 6.79157 20.9375 7.35407Z" fill="black"/>
<path opacity="0.4" d="M10.3122 13.3227L4.21841 10.2707C3.74966 10.0311 3.208 10.0623 2.76008 10.3332C2.31217 10.604 2.05176 11.0832 2.05176 11.604V17.3644C2.05176 18.3644 2.60382 19.2602 3.49966 19.7082L9.59341 22.7499C9.80175 22.854 10.0309 22.9061 10.2601 22.9061C10.5309 22.9061 10.8018 22.8332 11.0413 22.6769C11.4893 22.4061 11.7497 21.9269 11.7497 21.4061V15.6457C11.7601 14.6665 11.208 13.7706 10.3122 13.3227Z" fill="black"/>
<path opacity="0.4" d="M22.9486 11.6146V17.375C22.9486 18.3646 22.3965 19.2604 21.5007 19.7084L15.4069 22.7604C15.1986 22.8646 14.9694 22.9167 14.7402 22.9167C14.4694 22.9167 14.1986 22.8438 13.9486 22.6876C13.5111 22.4167 13.2402 21.9375 13.2402 21.4167V15.6667C13.2402 14.6667 13.7923 13.7708 14.6882 13.3229L16.9277 12.2083L18.4902 11.4271L20.7819 10.2813C21.2507 10.0417 21.7923 10.0625 22.2402 10.3438C22.6777 10.6146 22.9486 11.0938 22.9486 11.6146Z" fill="black"/>
</svg>
