<svg width="25" height="25" viewBox="0 0 25 25" fill="none" xmlns="http://www.w3.org/2000/svg">
<g clip-path="url(#clip0_14_1758)">
<path d="M20.8336 16.6667V5.20833C20.8336 4.37953 21.1628 3.58468 21.7489 2.99863C22.3349 2.41257 23.1298 2.08333 23.9586 2.08333C24.2349 2.08333 24.4998 1.97359 24.6952 1.77824C24.8905 1.58289 25.0002 1.31793 25.0002 1.04167C25.0002 0.7654 24.8905 0.500448 24.6952 0.305097C24.4998 0.109747 24.2349 0 23.9586 0C22.5778 0.00165402 21.254 0.550919 20.2776 1.52731C19.3012 2.50371 18.7519 3.82751 18.7502 5.20833V16.9573L15.9023 17.9073C15.9075 17.5534 15.8526 17.2011 15.7398 16.8656L14.1221 11.5531C13.8691 10.7644 13.314 10.1079 12.5783 9.72746C11.8425 9.34698 10.986 9.27343 10.1961 9.52292L3.21692 11.7417C2.43699 11.9942 1.78683 12.5419 1.40549 13.2676C1.02414 13.9933 0.941879 14.8394 1.17629 15.625L2.87838 21.2219C2.9896 21.5341 3.15034 21.8264 3.35442 22.0875L0.712751 22.9677C0.450297 23.055 0.233272 23.243 0.10942 23.4903C-0.0144318 23.7376 -0.0349664 24.024 0.0523341 24.2865C0.139634 24.5489 0.327619 24.7659 0.574932 24.8898C0.822246 25.0136 1.10863 25.0342 1.37108 24.9469L16.7711 19.8156C16.62 20.4296 16.6099 21.0698 16.7418 21.6881C16.8736 22.3065 17.1438 22.887 17.5322 23.3859C17.9206 23.8849 18.417 24.2893 18.9841 24.5689C19.5512 24.8484 20.1742 24.9958 20.8065 25C26.2836 24.8583 26.3075 16.8427 20.8336 16.6667ZM4.8565 20.5708L3.17004 15.0219C3.09245 14.7594 3.12061 14.477 3.2485 14.2351C3.37639 13.9931 3.59386 13.8108 3.85442 13.7271L10.8336 11.5083C11.0947 11.4253 11.378 11.4486 11.6221 11.573C11.8662 11.6973 12.0514 11.9129 12.1378 12.1729L13.7502 17.4917L13.7617 17.524C13.8435 17.764 13.8348 18.0257 13.7374 18.2599C13.64 18.494 13.4605 18.6846 13.2325 18.7958L6.05754 21.1917C5.81622 21.248 5.56274 21.2164 5.34261 21.1026C5.12249 20.9888 4.95013 20.8003 4.8565 20.5708ZM20.8065 22.9167C20.254 22.9167 19.7241 22.6972 19.3334 22.3065C18.9427 21.9158 18.7232 21.3859 18.7232 20.8333C18.7232 20.2808 18.9427 19.7509 19.3334 19.3602C19.7241 18.9695 20.254 18.75 20.8065 18.75C21.359 18.75 21.8889 18.9695 22.2796 19.3602C22.6703 19.7509 22.8898 20.2808 22.8898 20.8333C22.8898 21.3859 22.6703 21.9158 22.2796 22.3065C21.8889 22.6972 21.359 22.9167 20.8065 22.9167ZM10.469 14.5833C10.5104 14.7137 10.5258 14.851 10.5142 14.9873C10.5026 15.1236 10.4643 15.2562 10.4014 15.3777C10.3386 15.4992 10.2524 15.6071 10.1478 15.6953C10.0432 15.7835 9.92228 15.8502 9.79192 15.8917L7.22525 16.7094C6.96183 16.7931 6.67594 16.7687 6.43049 16.6416C6.18503 16.5146 6.00011 16.2952 5.9164 16.0318C5.83269 15.7684 5.85705 15.4825 5.98413 15.237C6.1112 14.9916 6.33058 14.8066 6.594 14.7229L9.16171 13.9063C9.42485 13.8229 9.71034 13.8473 9.95546 13.9743C10.2006 14.1012 10.3853 14.3203 10.469 14.5833Z" fill="black"/>
</g>
<defs>
<clipPath id="clip0_14_1758">
<rect width="25" height="25" fill="white"/>
</clipPath>
</defs>
</svg>
